<svg xmlns="http://www.w3.org/2000/svg" width="766.9675903320312" height="720.9945068359375" viewBox="-625.4869995117188 -293.5534362792969 766.9675903320312 720.9945068359375"><title>Neo4j Graph Visualization</title><desc>Created using Neo4j (http://www.neo4j.com/)</desc><g class="layer relationships"><g class="relationship" transform="translate(-265.5483393906436 248.42822872559853) rotate(237.35662821441235)"><path class="b-outline" fill="#A5ABB6" stroke="none" d="M 25 0.5 L 70.35071917422854 0.5 L 70.35071917422854 -0.5 L 25 -0.5 Z M 117.09681292422854 0.5 L 162.4475320984571 0.5 L 162.4475320984571 3.5 L 169.4475320984571 0 L 162.4475320984571 -3.5 L 162.4475320984571 -0.5 L 117.09681292422854 -0.5 Z"/><text text-anchor="middle" pointer-events="none" font-size="8px" fill="#000000" x="93.72376604922854" y="3" transform="rotate(180 93.72376604922854 0)" font-family="Helvetica Neue, Helvetica, Arial, sans-serif">CONTAINS</text></g><g class="relationship" transform="translate(-265.5483393906436 248.42822872559853) rotate(537.4128405360188)"><path class="b-outline" fill="#A5ABB6" stroke="none" d="M 25 0.5 L 80.05867515338508 0.5 L 80.05867515338508 -0.5 L 25 -0.5 Z M 126.80476890338508 0.5 L 181.86344405677016 0.5 L 181.86344405677016 3.5 L 188.86344405677016 0 L 181.86344405677016 -3.5 L 181.86344405677016 -0.5 L 126.80476890338508 -0.5 Z"/><text text-anchor="middle" pointer-events="none" font-size="8px" fill="#000000" x="103.43172202838508" y="3" transform="rotate(180 103.43172202838508 0)" font-family="Helvetica Neue, Helvetica, Arial, sans-serif">CONTAINS</text></g><g class="relationship" transform="translate(-54.885889381885036 -112.39272502378367) rotate(189.67720887801693)"><path class="b-outline" fill="#A5ABB6" stroke="none" d="M 25 0.5 L 101.16105151424657 0.5 L 101.16105151424657 -0.5 L 25 -0.5 Z M 147.90714526424657 0.5 L 224.06819677849313 0.5 L 224.06819677849313 3.5 L 231.06819677849313 0 L 224.06819677849313 -3.5 L 224.06819677849313 -0.5 L 147.90714526424657 -0.5 Z"/><text text-anchor="middle" pointer-events="none" font-size="8px" fill="#000000" x="124.53409838924657" y="3" transform="rotate(180 124.53409838924657 0)" font-family="Helvetica Neue, Helvetica, Arial, sans-serif">CONTAINS</text></g><g class="relationship" transform="translate(-54.885889381885036 -112.39272502378367) rotate(397.5241521706486)"><path class="b-outline" fill="#A5ABB6" stroke="none" d="M 25 0.5 L 54.98052403473082 0.5 L 54.98052403473082 -0.5 L 25 -0.5 Z M 101.72661778473082 0.5 L 131.70714181946164 0.5 L 131.70714181946164 3.5 L 138.70714181946164 0 L 131.70714181946164 -3.5 L 131.70714181946164 -0.5 L 101.72661778473082 -0.5 Z"/><text text-anchor="middle" pointer-events="none" font-size="8px" fill="#000000" x="78.35357090973082" y="3" font-family="Helvetica Neue, Helvetica, Arial, sans-serif">CONTAINS</text></g><g class="relationship" transform="translate(-265.5483393906436 248.42822872559853) rotate(402.6863204348745)"><path class="b-outline" fill="#A5ABB6" stroke="none" d="M 25 0.5 L 46.36039770307487 0.5 L 46.36039770307487 -0.5 L 25 -0.5 Z M 107.48539770307487 0.5 L 128.84579540614973 0.5 L 128.84579540614973 3.5 L 135.84579540614973 0 L 128.84579540614973 -3.5 L 128.84579540614973 -0.5 L 107.48539770307487 -0.5 Z"/><text text-anchor="middle" pointer-events="none" font-size="8px" fill="#000000" x="76.92289770307487" y="3" font-family="Helvetica Neue, Helvetica, Arial, sans-serif">ORDERED_BY</text></g><g class="relationship" transform="translate(-54.885889381885036 -112.39272502378367) rotate(362.948496100548)"><path class="b-outline" fill="#A5ABB6" stroke="none" d="M 25 0.5 L 49.731668257073665 0.5 L 49.731668257073665 -0.5 L 25 -0.5 Z M 110.85666825707366 0.5 L 135.58833651414733 0.5 L 135.58833651414733 3.5 L 142.58833651414733 0 L 135.58833651414733 -3.5 L 135.58833651414733 -0.5 L 110.85666825707366 -0.5 Z"/><text text-anchor="middle" pointer-events="none" font-size="8px" fill="#000000" x="80.29416825707366" y="3" font-family="Helvetica Neue, Helvetica, Arial, sans-serif">ORDERED_BY</text></g><g class="relationship" transform="translate(-265.5483393906436 248.42822872559853) rotate(367.10745354809694)"><path class="b-outline" fill="#A5ABB6" stroke="none" d="M 25 0.5 L 58.90124928366518 0.5 L 58.90124928366518 -0.5 L 25 -0.5 Z M 96.91296803366518 0.5 L 130.81421731733036 0.5 L 130.81421731733036 3.5 L 137.81421731733036 0 L 130.81421731733036 -3.5 L 130.81421731733036 -0.5 L 96.91296803366518 -0.5 Z"/><text text-anchor="middle" pointer-events="none" font-size="8px" fill="#000000" x="77.90710865866518" y="3" font-family="Helvetica Neue, Helvetica, Arial, sans-serif">PLACED</text></g><g class="relationship" transform="translate(-265.5483393906436 248.42822872559853) rotate(331.5557336329632)"><path class="b-outline" fill="#A5ABB6" stroke="none" d="M 25 0.5 L 59.02107119764091 0.5 L 59.02107119764091 -0.5 L 25 -0.5 Z M 97.03278994764091 0.5 L 131.05386114528181 0.5 L 131.05386114528181 3.5 L 138.05386114528181 0 L 131.05386114528181 -3.5 L 131.05386114528181 -0.5 L 97.03278994764091 -0.5 Z"/><text text-anchor="middle" pointer-events="none" font-size="8px" fill="#000000" x="78.02693057264091" y="3" font-family="Helvetica Neue, Helvetica, Arial, sans-serif">PLACED</text></g><g class="relationship" transform="translate(-54.885889381885036 -112.39272502378367) rotate(328.50782480848136)"><path class="b-outline" fill="#A5ABB6" stroke="none" d="M 25 0.5 L 60.6321987629579 0.5 L 60.6321987629579 -0.5 L 25 -0.5 Z M 98.6439175129579 0.5 L 134.2761162759158 0.5 L 134.2761162759158 3.5 L 141.2761162759158 0 L 134.2761162759158 -3.5 L 134.2761162759158 -0.5 L 98.6439175129579 -0.5 Z"/><text text-anchor="middle" pointer-events="none" font-size="8px" fill="#000000" x="79.6380581379579" y="3" font-family="Helvetica Neue, Helvetica, Arial, sans-serif">PLACED</text></g><g class="relationship" transform="translate(-54.885889381885036 -112.39272502378367) rotate(293.4370797787539)"><path class="b-outline" fill="#A5ABB6" stroke="none" d="M 25 0.5 L 58.59361093380153 0.5 L 58.59361093380153 -0.5 L 25 -0.5 Z M 96.60532968380153 0.5 L 130.19894061760306 0.5 L 130.19894061760306 3.5 L 137.19894061760306 0 L 130.19894061760306 -3.5 L 130.19894061760306 -0.5 L 96.60532968380153 -0.5 Z"/><text text-anchor="middle" pointer-events="none" font-size="8px" fill="#000000" x="77.59947030880153" y="3" font-family="Helvetica Neue, Helvetica, Arial, sans-serif">PLACED</text></g><g class="relationship" transform="translate(-206.682385097591 13.207358920129423) rotate(516.4159592226086)"><path class="b-outline" fill="#A5ABB6" stroke="none" d="M 25 0.5 L 60.61178193760557 0.5 L 60.61178193760557 -0.5 L 25 -0.5 Z M 111.06490693760557 0.5 L 146.67668887521114 0.5 L 146.67668887521114 3.5 L 153.67668887521114 0 L 146.67668887521114 -3.5 L 146.67668887521114 -0.5 L 111.06490693760557 -0.5 Z"/><text text-anchor="middle" pointer-events="none" font-size="8px" fill="#000000" x="85.83834443760557" y="3" transform="rotate(180 85.83834443760557 0)" font-family="Helvetica Neue, Helvetica, Arial, sans-serif">FOR_BOOK</text></g><g class="relationship" transform="translate(-511.22048947230127 112.6244126659075) rotate(348.7791133249168)"><path class="b-outline" fill="#A5ABB6" stroke="none" d="M 25 0.5 L 43.03803290175121 0.5 L 43.03803290175121 -0.5 L 25 -0.5 Z M 93.49115790175121 0.5 L 111.52919080350242 0.5 L 111.52919080350242 3.5 L 118.52919080350242 0 L 111.52919080350242 -3.5 L 111.52919080350242 -0.5 L 93.49115790175121 -0.5 Z"/><text text-anchor="middle" pointer-events="none" font-size="8px" fill="#000000" x="68.26459540175121" y="3" font-family="Helvetica Neue, Helvetica, Arial, sans-serif">FOR_BOOK</text></g><g class="relationship" transform="translate(-596.4870136438528 -124.62573084081563) rotate(402.799184708795)"><path class="b-outline" fill="#A5ABB6" stroke="none" d="M 25 0.5 L 125.31451179163923 0.5 L 125.31451179163923 -0.5 L 25 -0.5 Z M 175.76763679163923 0.5 L 276.08214858327847 0.5 L 276.08214858327847 3.5 L 283.08214858327847 0 L 276.08214858327847 -3.5 L 276.08214858327847 -0.5 L 175.76763679163923 -0.5 Z"/><text text-anchor="middle" pointer-events="none" font-size="8px" fill="#000000" x="150.54107429163923" y="3" font-family="Helvetica Neue, Helvetica, Arial, sans-serif">FOR_BOOK</text></g><g class="relationship" transform="translate(-409.2890852397331 -65.28361499390971) rotate(435.47598611866044)"><path class="b-outline" fill="#A5ABB6" stroke="none" d="M 25 0.5 L 48.73821124812723 0.5 L 48.73821124812723 -0.5 L 25 -0.5 Z M 99.19133624812723 0.5 L 122.92954749625446 0.5 L 122.92954749625446 3.5 L 129.92954749625446 0 L 122.92954749625446 -3.5 L 122.92954749625446 -0.5 L 99.19133624812723 -0.5 Z"/><text text-anchor="middle" pointer-events="none" font-size="8px" fill="#000000" x="73.96477374812723" y="3" font-family="Helvetica Neue, Helvetica, Arial, sans-serif">FOR_BOOK</text></g><g class="relationship" transform="translate(-206.682385097591 13.207358920129423) rotate(498.05763315703274)"><path class="b-outline" fill="#A5ABB6" stroke="none" d="M 25 0.5 L 154.45775511352733 0.5 L 154.45775511352733 -0.5 L 25 -0.5 Z M 204.91088011352733 0.5 L 334.36863522705465 0.5 L 334.36863522705465 3.5 L 341.36863522705465 0 L 334.36863522705465 -3.5 L 334.36863522705465 -0.5 L 204.91088011352733 -0.5 Z"/><text text-anchor="middle" pointer-events="none" font-size="8px" fill="#000000" x="179.68431761352733" y="3" transform="rotate(180 179.68431761352733 0)" font-family="Helvetica Neue, Helvetica, Arial, sans-serif">FOR_BOOK</text></g><g class="relationship" transform="translate(-511.22048947230127 112.6244126659075) rotate(437.5827899196694)"><path class="b-outline" fill="#A5ABB6" stroke="none" d="M 25 0.5 L 45.74418770850778 0.5 L 45.74418770850778 -0.5 L 25 -0.5 Z M 96.19731270850778 0.5 L 116.94150041701556 0.5 L 116.94150041701556 3.5 L 123.94150041701556 0 L 116.94150041701556 -3.5 L 116.94150041701556 -0.5 L 96.19731270850778 -0.5 Z"/><text text-anchor="middle" pointer-events="none" font-size="8px" fill="#000000" x="70.97075020850778" y="3" font-family="Helvetica Neue, Helvetica, Arial, sans-serif">FOR_BOOK</text></g><g class="relationship" transform="translate(-596.4870136438528 -124.62573084081563) rotate(353.9181624715402)"><path class="b-outline" fill="#A5ABB6" stroke="none" d="M 25 0.5 L 116.68018394052481 0.5 L 116.68018394052481 -0.5 L 25 -0.5 Z M 167.1333089405248 0.5 L 258.8134928810496 0.5 L 258.8134928810496 3.5 L 265.8134928810496 0 L 258.8134928810496 -3.5 L 258.8134928810496 -0.5 L 167.1333089405248 -0.5 Z"/><text text-anchor="middle" pointer-events="none" font-size="8px" fill="#000000" x="141.9067464405248" y="3" font-family="Helvetica Neue, Helvetica, Arial, sans-serif">FOR_BOOK</text></g><g class="relationship" transform="translate(-409.2890852397331 -65.28361499390971) rotate(318.5219723846624)"><path class="b-outline" fill="#A5ABB6" stroke="none" d="M 25 0.5 L 39.33097446912305 0.5 L 39.33097446912305 -0.5 L 25 -0.5 Z M 89.78409946912305 0.5 L 104.1150739382461 0.5 L 104.1150739382461 3.5 L 111.1150739382461 0 L 104.1150739382461 -3.5 L 104.1150739382461 -0.5 L 89.78409946912305 -0.5 Z"/><text text-anchor="middle" pointer-events="none" font-size="8px" fill="#000000" x="64.55753696912305" y="3" font-family="Helvetica Neue, Helvetica, Arial, sans-serif">FOR_BOOK</text></g><g class="relationship" transform="translate(-265.5483393906436 248.42822872559853) rotate(294.3224583733479)"><path class="b-outline" fill="#A5ABB6" stroke="none" d="M 25 0.5 L 25.183821034582223 0.5 L 25.183821034582223 -0.5 L 25 -0.5 Z M 111.20335228458222 0.5 L 111.38717331916445 0.5 L 111.38717331916445 3.5 L 118.38717331916445 0 L 111.38717331916445 -3.5 L 111.38717331916445 -0.5 L 111.20335228458222 -0.5 Z"/><text text-anchor="middle" pointer-events="none" font-size="8px" fill="#000000" x="68.19358665958222" y="3" font-family="Helvetica Neue, Helvetica, Arial, sans-serif">APPLIED_DISCOUNT</text></g><g class="relationship" transform="translate(-54.885889381885036 -112.39272502378367) rotate(257.1270202928069)"><path class="b-outline" fill="#A5ABB6" stroke="none" d="M 25 0.5 L 31.53206173279264 0.5 L 31.53206173279264 -0.5 L 25 -0.5 Z M 117.55159298279264 0.5 L 124.08365471558528 0.5 L 124.08365471558528 3.5 L 131.08365471558528 0 L 124.08365471558528 -3.5 L 124.08365471558528 -0.5 L 117.55159298279264 -0.5 Z"/><text text-anchor="middle" pointer-events="none" font-size="8px" fill="#000000" x="74.54182735779264" y="3" transform="rotate(180 74.54182735779264 0)" font-family="Helvetica Neue, Helvetica, Arial, sans-serif">APPLIED_DISCOUNT</text></g><g class="relationship" transform="translate(-265.5483393906436 248.42822872559853) rotate(478.440582771458)"><path class="b-outline" fill="#A5ABB6" stroke="none" d="M 25 0.5 L 41.098714397062565 0.5 L 41.098714397062565 -0.5 L 25 -0.5 Z M 97.34090189706257 0.5 L 113.43961629412513 0.5 L 113.43961629412513 3.5 L 120.43961629412513 0 L 113.43961629412513 -3.5 L 113.43961629412513 -0.5 L 97.34090189706257 -0.5 Z"/><text text-anchor="middle" pointer-events="none" font-size="8px" fill="#000000" x="69.21980814706257" y="3" transform="rotate(180 69.21980814706257 0)" font-family="Helvetica Neue, Helvetica, Arial, sans-serif">SHIPPED_BY</text></g><g class="relationship" transform="translate(-54.885889381885036 -112.39272502378367) rotate(434.1165235916975)"><path class="b-outline" fill="#A5ABB6" stroke="none" d="M 25 0.5 L 42.53138040092119 0.5 L 42.53138040092119 -0.5 L 25 -0.5 Z M 98.7735679009212 0.5 L 116.30494830184239 0.5 L 116.30494830184239 3.5 L 123.30494830184239 0 L 116.30494830184239 -3.5 L 116.30494830184239 -0.5 L 98.7735679009212 -0.5 Z"/><text text-anchor="middle" pointer-events="none" font-size="8px" fill="#000000" x="70.6524741509212" y="3" font-family="Helvetica Neue, Helvetica, Arial, sans-serif">SHIPPED_BY</text></g><g class="relationship" transform="translate(-54.885889381885036 -112.39272502378367) rotate(218.74347051683822)"><path class="b-outline" fill="#A5ABB6" stroke="none" d="M 25 0.5 L 26.328535402153946 0.5 L 26.328535402153946 -0.5 L 25 -0.5 Z M 112.34806665215395 0.5 L 113.67660205430789 0.5 L 113.67660205430789 3.5 L 120.67660205430789 0 L 113.67660205430789 -3.5 L 113.67660205430789 -0.5 L 112.34806665215395 -0.5 Z"/><text text-anchor="middle" pointer-events="none" font-size="8px" fill="#000000" x="69.33830102715395" y="3" transform="rotate(180 69.33830102715395 0)" font-family="Helvetica Neue, Helvetica, Arial, sans-serif">APPLIED_DISCOUNT</text></g><g class="relationship" transform="translate(-265.5483393906436 248.42822872559853) rotate(439.4302768779165)"><path class="b-outline" fill="#A5ABB6" stroke="none" d="M 25 0.5 L 44.67996169776313 0.5 L 44.67996169776313 -0.5 L 25 -0.5 Z M 100.92214919776313 0.5 L 120.60211089552627 0.5 L 120.60211089552627 3.5 L 127.60211089552627 0 L 120.60211089552627 -3.5 L 120.60211089552627 -0.5 L 100.92214919776313 -0.5 Z"/><text text-anchor="middle" pointer-events="none" font-size="8px" fill="#000000" x="72.80105544776313" y="3" font-family="Helvetica Neue, Helvetica, Arial, sans-serif">SHIPPED_BY</text></g></g><g class="layer nodes"><g class="node" aria-label="graph-node0" transform="translate(-370.43496195553445,84.69478942222769)"><circle class="b-outline" cx="0" cy="0" r="25" fill="#DA7194" stroke="#cc3c6c" stroke-width="2px"/><text class="caption" text-anchor="middle" pointer-events="none" x="0" y="0" font-size="10px" fill="#FFFFFF" font-family="Helvetica Neue, Helvetica, Arial, sans-serif"> The Great</text><text class="caption" text-anchor="middle" pointer-events="none" x="0" y="10" font-size="10px" fill="#FFFFFF" font-family="Helvetica Neue, Helvetica, Arial, sans-serif"> Gatsby</text></g><g class="node" aria-label="graph-node1" transform="translate(-479.19379478848884,258.08183383822757)"><circle class="b-outline" cx="0" cy="0" r="25" fill="#DA7194" stroke="#cc3c6c" stroke-width="2px"/><text class="caption" text-anchor="middle" pointer-events="none" x="0" y="0" font-size="10px" fill="#FFFFFF" font-family="Helvetica Neue, Helvetica, Arial, sans-serif"> To Kill a</text><text class="caption" text-anchor="middle" pointer-events="none" x="0" y="10" font-size="10px" fill="#FFFFFF" font-family="Helvetica Neue, Helvetica, Arial, sans-serif"> Mocki…</text></g><g class="node" aria-label="graph-node2" transform="translate(-307.31034143261405,-155.43709060487097)"><circle class="b-outline" cx="0" cy="0" r="25" fill="#DA7194" stroke="#cc3c6c" stroke-width="2px"/><text class="caption" text-anchor="middle" pointer-events="none" x="0" y="-5" font-size="10px" fill="#FFFFFF" font-family="Helvetica Neue, Helvetica, Arial, sans-serif"> Harry</text><text class="caption" text-anchor="middle" pointer-events="none" x="0" y="5" font-size="10px" fill="#FFFFFF" font-family="Helvetica Neue, Helvetica, Arial, sans-serif"> Potter and</text><text class="caption" text-anchor="middle" pointer-events="none" x="0" y="15" font-size="10px" fill="#FFFFFF" font-family="Helvetica Neue, Helvetica, Arial, sans-serif"> th</text></g><g class="node" aria-label="graph-node3" transform="translate(74.9496972970587,-12.679392342382371)"><circle class="b-outline" cx="0" cy="0" r="25" fill="#DA7194" stroke="#cc3c6c" stroke-width="2px"/><text class="caption" text-anchor="middle" pointer-events="none" x="0" y="5" font-size="10px" fill="#FFFFFF" font-family="Helvetica Neue, Helvetica, Arial, sans-serif"> 1984</text></g><g class="node" aria-label="graph-node4" transform="translate(-147.31437712836782,357.47913457969827)"><circle class="b-outline" cx="0" cy="0" r="25" fill="#569480" stroke="#447666" stroke-width="2px"/><text class="caption" text-anchor="middle" pointer-events="none" x="0" y="5" font-size="10px" fill="#FFFFFF" font-family="Helvetica Neue, Helvetica, Arial, sans-serif"> Alice</text></g><g class="node" aria-label="graph-node5" transform="translate(112.48058979289212,-103.77227351484476)"><circle class="b-outline" cx="0" cy="0" r="25" fill="#569480" stroke="#447666" stroke-width="2px"/><text class="caption" text-anchor="middle" pointer-events="none" x="0" y="5" font-size="10px" fill="#FFFFFF" font-family="Helvetica Neue, Helvetica, Arial, sans-serif"> Bob</text></g><g class="node" aria-label="graph-node6" transform="translate(-265.5483393906436,248.42822872559853)"><circle class="b-outline" cx="0" cy="0" r="25" fill="#A5ABB6" stroke="#9AA1AC" stroke-width="2px"/><text class="caption" text-anchor="middle" pointer-events="none" x="0" y="5" font-size="10px" fill="#FFFFFF" font-family="Helvetica Neue, Helvetica, Arial, sans-serif"> "2024-0…</text></g><g class="node" aria-label="graph-node7" transform="translate(-54.885889381885036,-112.39272502378367)"><circle class="b-outline" cx="0" cy="0" r="25" fill="#A5ABB6" stroke="#9AA1AC" stroke-width="2px"/><text class="caption" text-anchor="middle" pointer-events="none" x="0" y="5" font-size="10px" fill="#FFFFFF" font-family="Helvetica Neue, Helvetica, Arial, sans-serif"> "2024-0…</text></g><g class="node" aria-label="graph-node8" transform="translate(-103.9852108921629,268.57332416936083)"><circle class="b-outline" cx="0" cy="0" r="25" fill="#A5ABB6" stroke="#9AA1AC" stroke-width="2px"/><text class="caption" text-anchor="middle" pointer-events="none" x="0" y="5" font-size="10px" fill="#FFFFFF" font-family="Helvetica Neue, Helvetica, Arial, sans-serif"> 50</text></g><g class="node" aria-label="graph-node9" transform="translate(-122.17820241413419,170.76507492843567)"><circle class="b-outline" cx="0" cy="0" r="25" fill="#A5ABB6" stroke="#9AA1AC" stroke-width="2px"/><text class="caption" text-anchor="middle" pointer-events="none" x="0" y="5" font-size="10px" fill="#FFFFFF" font-family="Helvetica Neue, Helvetica, Arial, sans-serif"> 30</text></g><g class="node" aria-label="graph-node10" transform="translate(86.89966935960547,-199.25239446918982)"><circle class="b-outline" cx="0" cy="0" r="25" fill="#A5ABB6" stroke="#9AA1AC" stroke-width="2px"/><text class="caption" text-anchor="middle" pointer-events="none" x="0" y="5" font-size="10px" fill="#FFFFFF" font-family="Helvetica Neue, Helvetica, Arial, sans-serif"> 40</text></g><g class="node" aria-label="graph-node11" transform="translate(9.627400359364506,-261.20983353028004)"><circle class="b-outline" cx="0" cy="0" r="25" fill="#A5ABB6" stroke="#9AA1AC" stroke-width="2px"/><text class="caption" text-anchor="middle" pointer-events="none" x="0" y="5" font-size="10px" fill="#FFFFFF" font-family="Helvetica Neue, Helvetica, Arial, sans-serif"> 20</text></g><g class="node" aria-label="graph-node12" transform="translate(-206.682385097591,13.207358920129423)"><circle class="b-outline" cx="0" cy="0" r="25" fill="#A5ABB6" stroke="#9AA1AC" stroke-width="2px"/><text class="caption" text-anchor="middle" pointer-events="none" x="0" y="5" font-size="10px" fill="#FFFFFF" font-family="Helvetica Neue, Helvetica, Arial, sans-serif"> Alice</text></g><g class="node" aria-label="graph-node13" transform="translate(-596.4870136438528,-124.62573084081563)"><circle class="b-outline" cx="0" cy="0" r="25" fill="#A5ABB6" stroke="#9AA1AC" stroke-width="2px"/><text class="caption" text-anchor="middle" pointer-events="none" x="0" y="5" font-size="10px" fill="#FFFFFF" font-family="Helvetica Neue, Helvetica, Arial, sans-serif"> Bob</text></g><g class="node" aria-label="graph-node14" transform="translate(-511.22048947230127,112.6244126659075)"><circle class="b-outline" cx="0" cy="0" r="25" fill="#A5ABB6" stroke="#9AA1AC" stroke-width="2px"/><text class="caption" text-anchor="middle" pointer-events="none" x="0" y="5" font-size="10px" fill="#FFFFFF" font-family="Helvetica Neue, Helvetica, Arial, sans-serif"> Alice</text></g><g class="node" aria-label="graph-node15" transform="translate(-409.2890852397331,-65.28361499390971)"><circle class="b-outline" cx="0" cy="0" r="25" fill="#A5ABB6" stroke="#9AA1AC" stroke-width="2px"/><text class="caption" text-anchor="middle" pointer-events="none" x="0" y="5" font-size="10px" fill="#FFFFFF" font-family="Helvetica Neue, Helvetica, Arial, sans-serif"> Bob</text></g><g class="node" aria-label="graph-node16" transform="translate(-206.49123890271875,117.76782785976906)"><circle class="b-outline" cx="0" cy="0" r="25" fill="#A5ABB6" stroke="#9AA1AC" stroke-width="2px"/><text class="caption" text-anchor="middle" pointer-events="none" x="0" y="5" font-size="10px" fill="#FFFFFF" font-family="Helvetica Neue, Helvetica, Arial, sans-serif"> 25</text></g><g class="node" aria-label="graph-node17" transform="translate(-89.6598293390657,-264.5534307569934)"><circle class="b-outline" cx="0" cy="0" r="25" fill="#A5ABB6" stroke="#9AA1AC" stroke-width="2px"/><text class="caption" text-anchor="middle" pointer-events="none" x="0" y="5" font-size="10px" fill="#FFFFFF" font-family="Helvetica Neue, Helvetica, Arial, sans-serif"> 20</text></g><g class="node" aria-label="graph-node18" transform="translate(-168.50720137212542,-203.56218179361224)"><circle class="b-outline" cx="0" cy="0" r="25" fill="#A5ABB6" stroke="#9AA1AC" stroke-width="2px"/><text class="caption" text-anchor="middle" pointer-events="none" x="0" y="5" font-size="10px" fill="#FFFFFF" font-family="Helvetica Neue, Helvetica, Arial, sans-serif"> 30</text></g><g class="node" aria-label="graph-node19" transform="translate(-334.8135417720485,376.314950971676)"><circle class="b-outline" cx="0" cy="0" r="25" fill="#A5ABB6" stroke="#9AA1AC" stroke-width="2px"/><text class="caption" text-anchor="middle" pointer-events="none" x="0" y="5" font-size="10px" fill="#FFFFFF" font-family="Helvetica Neue, Helvetica, Arial, sans-serif"> UPS</text></g><g class="node" aria-label="graph-node20" transform="translate(-14.297516812542902,30.24998142482664)"><circle class="b-outline" cx="0" cy="0" r="25" fill="#A5ABB6" stroke="#9AA1AC" stroke-width="2px"/><text class="caption" text-anchor="middle" pointer-events="none" x="0" y="5" font-size="10px" fill="#FFFFFF" font-family="Helvetica Neue, Helvetica, Arial, sans-serif"> FedEx</text></g><g class="node" aria-label="graph-node21" transform="translate(-237.55624252969292,398.44105072124546)"><circle class="b-outline" cx="0" cy="0" r="25" fill="#A5ABB6" stroke="#9AA1AC" stroke-width="2px"/><text class="caption" text-anchor="middle" pointer-events="none" x="0" y="5" font-size="10px" fill="#FFFFFF" font-family="Helvetica Neue, Helvetica, Arial, sans-serif"> USPS</text></g></g></svg>