<svg xmlns="http://www.w3.org/2000/svg" width="905.8034057617188" height="604.42236328125" viewBox="-757.8341674804688 -294.1468811035156 905.8034057617188 604.42236328125"><title>Neo4j Graph Visualization</title><desc>Created using Neo4j (http://www.neo4j.com/)</desc><g class="layer relationships"><g class="relationship" transform="translate(-441.26246770140267 242.84815304101065) rotate(373.18277717453543)"><path class="b-outline" fill="#A5ABB6" stroke="none" d="M 25 0.5 L 49.96186194129518 0.5 L 49.96186194129518 -0.5 L 25 -0.5 Z M 111.53608069129518 0.5 L 136.49794263259037 0.5 L 136.49794263259037 3.5 L 143.49794263259037 0 L 136.49794263259037 -3.5 L 136.49794263259037 -0.5 L 111.53608069129518 -0.5 Z"/><text text-anchor="middle" pointer-events="none" font-size="8px" fill="#000000" x="80.74897131629518" y="3" font-family="Helvetica Neue, Helvetica, Arial, sans-serif">ENROLLED_IN</text></g><g class="relationship" transform="translate(-441.26246770140267 242.84815304101065) rotate(350.8638463906515)"><path class="b-outline" fill="#A5ABB6" stroke="none" d="M 25 0.5 L 81.71341420203909 0.5 L 81.71341420203909 -0.5 L 25 -0.5 Z M 143.28763295203908 0.5 L 200.00104715407818 0.5 L 200.00104715407818 3.5 L 207.00104715407818 0 L 200.00104715407818 -3.5 L 200.00104715407818 -0.5 L 143.28763295203908 -0.5 Z"/><text text-anchor="middle" pointer-events="none" font-size="8px" fill="#000000" x="112.50052357703909" y="3" font-family="Helvetica Neue, Helvetica, Arial, sans-serif">ENROLLED_IN</text></g><g class="relationship" transform="translate(-23.60985070642269 163.61983447141716) rotate(527.3320183869422)"><path class="b-outline" fill="#A5ABB6" stroke="none" d="M 25 0.5 L 62.363009872134796 0.5 L 62.363009872134796 -0.5 L 25 -0.5 Z M 123.9372286221348 0.5 L 161.3002384942696 0.5 L 161.3002384942696 3.5 L 168.3002384942696 0 L 161.3002384942696 -3.5 L 161.3002384942696 -0.5 L 123.9372286221348 -0.5 Z"/><text text-anchor="middle" pointer-events="none" font-size="8px" fill="#000000" x="93.1501192471348" y="3" transform="rotate(180 93.1501192471348 0)" font-family="Helvetica Neue, Helvetica, Arial, sans-serif">ENROLLED_IN</text></g><g class="relationship" transform="translate(-441.26246770140267 242.84815304101065) rotate(327.388104277691)"><path class="b-outline" fill="#D9C8AE" stroke="none" d="M 25 0.5 L 193.65364759188014 0.5 L 193.65364759188014 -0.5 L 25 -0.5 Z M 247.07161634188014 0.5 L 415.7252639337603 0.5 L 415.7252639337603 3.5 L 422.7252639337603 0 L 415.7252639337603 -3.5 L 415.7252639337603 -0.5 L 247.07161634188014 -0.5 Z"/><text text-anchor="middle" pointer-events="none" font-size="8px" fill="#000000" x="220.36263196688014" y="3" font-family="Helvetica Neue, Helvetica, Arial, sans-serif">TAUGHT_BY</text></g><g class="relationship" transform="translate(-23.60985070642269 163.61983447141716) rotate(304.81557028552794)"><path class="b-outline" fill="#D9C8AE" stroke="none" d="M 25 0.5 L 94.65520237750532 0.5 L 94.65520237750532 -0.5 L 25 -0.5 Z M 148.0731711275053 0.5 L 217.72837350501064 0.5 L 217.72837350501064 3.5 L 224.72837350501064 0 L 217.72837350501064 -3.5 L 217.72837350501064 -0.5 L 148.0731711275053 -0.5 Z"/><text text-anchor="middle" pointer-events="none" font-size="8px" fill="#000000" x="121.36418675250532" y="3" font-family="Helvetica Neue, Helvetica, Arial, sans-serif">TAUGHT_BY</text></g><g class="relationship" transform="translate(-64.12533627800931 1.5485548932113318) rotate(240.14963366575893)"><path class="b-outline" fill="#A5ABB6" stroke="none" d="M 25 0.5 L 38.01522461342866 0.5 L 38.01522461342866 -0.5 L 25 -0.5 Z M 86.68709961342866 0.5 L 99.70232422685731 0.5 L 99.70232422685731 3.5 L 106.70232422685731 0 L 99.70232422685731 -3.5 L 99.70232422685731 -0.5 L 86.68709961342866 -0.5 Z"/><text text-anchor="middle" pointer-events="none" font-size="8px" fill="#000000" x="62.35116211342866" y="3" transform="rotate(180 62.35116211342866 0)" font-family="Helvetica Neue, Helvetica, Arial, sans-serif">WORKS_IN</text></g><g class="relationship" transform="translate(-439.3510944259156 -173.86106180195156) rotate(371.1757179192557)"><path class="b-outline" fill="#A5ABB6" stroke="none" d="M 25 0.5 L 129.99326349850912 0.5 L 129.99326349850912 -0.5 L 25 -0.5 Z M 178.66513849850912 0.5 L 283.65840199701825 0.5 L 283.65840199701825 3.5 L 290.65840199701825 0 L 283.65840199701825 -3.5 L 283.65840199701825 -0.5 L 178.66513849850912 -0.5 Z"/><text text-anchor="middle" pointer-events="none" font-size="8px" fill="#000000" x="154.32920099850912" y="3" font-family="Helvetica Neue, Helvetica, Arial, sans-serif">WORKS_IN</text></g><g class="relationship" transform="translate(118.96924180050353 -41.405683241279945) rotate(195.99496292613355)"><path class="b-outline" fill="#A5ABB6" stroke="none" d="M 25 0.5 L 101.49480421628797 0.5 L 101.49480421628797 -0.5 L 25 -0.5 Z M 150.16667921628797 0.5 L 226.66148343257595 0.5 L 226.66148343257595 3.5 L 233.66148343257595 0 L 226.66148343257595 -3.5 L 226.66148343257595 -0.5 L 150.16667921628797 -0.5 Z"/><text text-anchor="middle" pointer-events="none" font-size="8px" fill="#000000" x="125.83074171628797" y="3" transform="rotate(180 125.83074171628797 0)" font-family="Helvetica Neue, Helvetica, Arial, sans-serif">WORKS_IN</text></g><g class="relationship" transform="translate(7.3787875361897095 -191.50625855252449) rotate(510.0955114184418)"><path class="b-outline" fill="#A5ABB6" stroke="none" d="M 25 0.5 L 51.21809284167591 0.5 L 51.21809284167591 -0.5 L 25 -0.5 Z M 99.88996784167591 0.5 L 126.10806068335182 0.5 L 126.10806068335182 3.5 L 133.10806068335182 0 L 126.10806068335182 -3.5 L 126.10806068335182 -0.5 L 99.88996784167591 -0.5 Z"/><text text-anchor="middle" pointer-events="none" font-size="8px" fill="#000000" x="75.55403034167591" y="3" transform="rotate(180 75.55403034167591 0)" font-family="Helvetica Neue, Helvetica, Arial, sans-serif">WORKS_IN</text></g><g class="relationship" transform="translate(-557.6749559379562 -219.35326403423014) rotate(526.6268702068228)"><path class="b-outline" fill="#A5ABB6" stroke="none" d="M 25 0.5 L 55.65484355029733 0.5 L 55.65484355029733 -0.5 L 25 -0.5 Z M 104.32671855029733 0.5 L 134.98156210059466 0.5 L 134.98156210059466 3.5 L 141.98156210059466 0 L 134.98156210059466 -3.5 L 134.98156210059466 -0.5 L 104.32671855029733 -0.5 Z"/><text text-anchor="middle" pointer-events="none" font-size="8px" fill="#000000" x="79.99078105029733" y="3" transform="rotate(180 79.99078105029733 0)" font-family="Helvetica Neue, Helvetica, Arial, sans-serif">WORKS_IN</text></g><g class="relationship" transform="translate(-441.26246770140267 242.84815304101065) rotate(295.17296882311007)"><path class="b-outline" fill="#A5ABB6" stroke="none" d="M 25 0.5 L 122.52960644827814 0.5 L 122.52960644827814 -0.5 L 25 -0.5 Z M 184.10382519827814 0.5 L 281.6334316465563 0.5 L 281.6334316465563 3.5 L 288.6334316465563 0 L 281.6334316465563 -3.5 L 281.6334316465563 -0.5 L 184.10382519827814 -0.5 Z"/><text text-anchor="middle" pointer-events="none" font-size="8px" fill="#000000" x="153.31671582327814" y="3" font-family="Helvetica Neue, Helvetica, Arial, sans-serif">ENROLLED_IN</text></g><g class="relationship" transform="translate(-23.60985070642269 163.61983447141716) rotate(215.74860067464022)"><path class="b-outline" fill="#A5ABB6" stroke="none" d="M 25 0.5 L 140.8311822790184 0.5 L 140.8311822790184 -0.5 L 25 -0.5 Z M 202.4054010290184 0.5 L 318.2365833080368 0.5 L 318.2365833080368 3.5 L 325.2365833080368 0 L 318.2365833080368 -3.5 L 318.2365833080368 -0.5 L 202.4054010290184 -0.5 Z"/><text text-anchor="middle" pointer-events="none" font-size="8px" fill="#000000" x="171.6182916540184" y="3" transform="rotate(180 171.6182916540184 0)" font-family="Helvetica Neue, Helvetica, Arial, sans-serif">ENROLLED_IN</text></g><g class="relationship" transform="translate(-604.8958655057182 42.715798338741514) rotate(300.7747377235206)"><path class="b-outline" fill="#A5ABB6" stroke="none" d="M 25 0.5 L 33.29933794732078 0.5 L 33.29933794732078 -0.5 L 25 -0.5 Z M 94.87355669732078 0.5 L 103.17289464464156 0.5 L 103.17289464464156 3.5 L 110.17289464464156 0 L 103.17289464464156 -3.5 L 103.17289464464156 -0.5 L 94.87355669732078 -0.5 Z"/><text text-anchor="middle" pointer-events="none" font-size="8px" fill="#000000" x="64.08644732232078" y="3" font-family="Helvetica Neue, Helvetica, Arial, sans-serif">ENROLLED_IN</text></g><g class="relationship" transform="translate(-64.12533627800931 1.5485548932113318) rotate(189.9021146858322)"><path class="b-outline" fill="#A5ABB6" stroke="none" d="M 25 0.5 L 98.31652407192117 0.5 L 98.31652407192117 -0.5 L 25 -0.5 Z M 142.10168032192115 0.5 L 215.41820439384233 0.5 L 215.41820439384233 3.5 L 222.41820439384233 0 L 215.41820439384233 -3.5 L 215.41820439384233 -0.5 L 142.10168032192115 -0.5 Z"/><text text-anchor="middle" pointer-events="none" font-size="8px" fill="#000000" x="120.20910219692117" y="3" transform="rotate(180 120.20910219692117 0)" font-family="Helvetica Neue, Helvetica, Arial, sans-serif">TEACHES</text></g><g class="relationship" transform="translate(-439.3510944259156 -173.86106180195156) rotate(405.2966858936441)"><path class="b-outline" fill="#A5ABB6" stroke="none" d="M 25 0.5 L 68.07248633327559 0.5 L 68.07248633327559 -0.5 L 25 -0.5 Z M 111.85764258327559 0.5 L 154.93012891655118 0.5 L 154.93012891655118 3.5 L 161.93012891655118 0 L 154.93012891655118 -3.5 L 154.93012891655118 -0.5 L 111.85764258327559 -0.5 Z"/><text text-anchor="middle" pointer-events="none" font-size="8px" fill="#000000" x="89.96506445827559" y="3" font-family="Helvetica Neue, Helvetica, Arial, sans-serif">TEACHES</text></g><g class="relationship" transform="translate(118.96924180050353 -41.405683241279945) rotate(211.56084652351035)"><path class="b-outline" fill="#A5ABB6" stroke="none" d="M 25 0.5 L 134.84135647830067 0.5 L 134.84135647830067 -0.5 L 25 -0.5 Z M 178.62651272830067 0.5 L 288.46786920660134 0.5 L 288.46786920660134 3.5 L 295.46786920660134 0 L 288.46786920660134 -3.5 L 288.46786920660134 -0.5 L 178.62651272830067 -0.5 Z"/><text text-anchor="middle" pointer-events="none" font-size="8px" fill="#000000" x="156.73393460330067" y="3" transform="rotate(180 156.73393460330067 0)" font-family="Helvetica Neue, Helvetica, Arial, sans-serif">TEACHES</text></g><g class="relationship" transform="translate(7.3787875361897095 -191.50625855252449) rotate(186.2321466274406)"><path class="b-outline" fill="#A5ABB6" stroke="none" d="M 25 0.5 L 55.82507465659357 0.5 L 55.82507465659357 -0.5 L 25 -0.5 Z M 99.61023090659357 0.5 L 130.43530556318714 0.5 L 130.43530556318714 3.5 L 137.43530556318714 0 L 130.43530556318714 -3.5 L 130.43530556318714 -0.5 L 99.61023090659357 -0.5 Z"/><text text-anchor="middle" pointer-events="none" font-size="8px" fill="#000000" x="77.71765278159357" y="3" transform="rotate(180 77.71765278159357 0)" font-family="Helvetica Neue, Helvetica, Arial, sans-serif">TEACHES</text></g><g class="relationship" transform="translate(-557.6749559379562 -219.35326403423014) rotate(441.4490234477719)"><path class="b-outline" fill="#A5ABB6" stroke="none" d="M 25 0.5 L 48.392853711129035 0.5 L 48.392853711129035 -0.5 L 25 -0.5 Z M 92.17800996112904 0.5 L 115.57086367225807 0.5 L 115.57086367225807 3.5 L 122.57086367225807 0 L 115.57086367225807 -3.5 L 115.57086367225807 -0.5 L 92.17800996112904 -0.5 Z"/><text text-anchor="middle" pointer-events="none" font-size="8px" fill="#000000" x="70.28543183612904" y="3" font-family="Helvetica Neue, Helvetica, Arial, sans-serif">TEACHES</text></g><g class="relationship" transform="translate(-472.3144367373245 152.39766470822838) rotate(310.3765172053108)"><path class="b-outline" fill="#A5ABB6" stroke="none" d="M 25 0.5 L 111.98989780862877 0.5 L 111.98989780862877 -0.5 L 25 -0.5 Z M 134.87661655862877 0.5 L 221.86651436725754 0.5 L 221.86651436725754 3.5 L 228.86651436725754 0 L 221.86651436725754 -3.5 L 221.86651436725754 -0.5 L 134.87661655862877 -0.5 Z"/><text text-anchor="middle" pointer-events="none" font-size="8px" fill="#000000" x="123.43325718362877" y="3" font-family="Helvetica Neue, Helvetica, Arial, sans-serif">FOR</text></g><g class="relationship" transform="translate(-439.5018825540315 -265.1468736900752) rotate(371.10247587870657)"><path class="b-outline" fill="#A5ABB6" stroke="none" d="M 25 0.5 L 130.48101451451654 0.5 L 130.48101451451654 -0.5 L 25 -0.5 Z M 153.36773326451654 0.5 L 258.8487477790331 0.5 L 258.8487477790331 3.5 L 265.8487477790331 0 L 258.8487477790331 -3.5 L 258.8487477790331 -0.5 L 153.36773326451654 -0.5 Z"/><text text-anchor="middle" pointer-events="none" font-size="8px" fill="#000000" x="141.92437388951654" y="3" font-family="Helvetica Neue, Helvetica, Arial, sans-serif">FOR</text></g><g class="relationship" transform="translate(-728.8341471897251 -91.88749955864304) rotate(365.4621162307238)"><path class="b-outline" fill="#A5ABB6" stroke="none" d="M 25 0.5 L 82.0477419023349 0.5 L 82.0477419023349 -0.5 L 25 -0.5 Z M 104.9344606523349 0.5 L 161.9822025546698 0.5 L 161.9822025546698 3.5 L 168.9822025546698 0 L 161.9822025546698 -3.5 L 161.9822025546698 -0.5 L 104.9344606523349 -0.5 Z"/><text text-anchor="middle" pointer-events="none" font-size="8px" fill="#000000" x="93.4911012773349" y="3" font-family="Helvetica Neue, Helvetica, Arial, sans-serif">FOR</text></g><g class="relationship" transform="translate(-441.26246770140267 242.84815304101065) rotate(251.05247451675308)"><path class="b-outline" fill="#A5ABB6" stroke="none" d="M 25 0.5 L 25.759453999735484 0.5 L 25.759453999735484 -0.5 L 25 -0.5 Z M 62.872735249735484 0.5 L 63.63218924947097 0.5 L 63.63218924947097 3.5 L 70.63218924947097 0 L 63.63218924947097 -3.5 L 63.63218924947097 -0.5 L 62.872735249735484 -0.5 Z"/><text text-anchor="middle" pointer-events="none" font-size="8px" fill="#000000" x="44.316094624735484" y="3" transform="rotate(180 44.316094624735484 0)" font-family="Helvetica Neue, Helvetica, Arial, sans-serif">SUBM…</text></g><g class="relationship" transform="translate(-23.60985070642269 163.61983447141716) rotate(181.43267747003188)"><path class="b-outline" fill="#A5ABB6" stroke="none" d="M 25 0.5 L 194.81112096340829 0.5 L 194.81112096340829 -0.5 L 25 -0.5 Z M 247.03377721340829 0.5 L 416.84489817681657 0.5 L 416.84489817681657 3.5 L 423.84489817681657 0 L 416.84489817681657 -3.5 L 416.84489817681657 -0.5 L 247.03377721340829 -0.5 Z"/><text text-anchor="middle" pointer-events="none" font-size="8px" fill="#000000" x="220.92244908840829" y="3" transform="rotate(180 220.92244908840829 0)" font-family="Helvetica Neue, Helvetica, Arial, sans-serif">SUBMITTED</text></g><g class="relationship" transform="translate(-604.8958655057182 42.715798338741514) rotate(227.36215070170425)"><path class="b-outline" fill="#A5ABB6" stroke="none" d="M 25 0.5 L 61.87466188390283 0.5 L 61.87466188390283 -0.5 L 25 -0.5 Z M 114.09731813390283 0.5 L 150.97198001780566 0.5 L 150.97198001780566 3.5 L 157.97198001780566 0 L 150.97198001780566 -3.5 L 150.97198001780566 -0.5 L 114.09731813390283 -0.5 Z"/><text text-anchor="middle" pointer-events="none" font-size="8px" fill="#000000" x="87.98599000890283" y="3" transform="rotate(180 87.98599000890283 0)" font-family="Helvetica Neue, Helvetica, Arial, sans-serif">SUBMITTED</text></g></g><g class="layer nodes"><g class="node" aria-label="graph-node0" transform="translate(-441.26246770140267,242.84815304101065)"><circle class="b-outline" cx="0" cy="0" r="25" fill="#F16667" stroke="#eb2728" stroke-width="2px"/><text class="caption" text-anchor="middle" pointer-events="none" x="0" y="5" font-size="10px" fill="#FFFFFF" font-family="Helvetica Neue, Helvetica, Arial, sans-serif"> John</text></g><g class="node" aria-label="graph-node1" transform="translate(-23.60985070642269,163.61983447141716)"><circle class="b-outline" cx="0" cy="0" r="25" fill="#F16667" stroke="#eb2728" stroke-width="2px"/><text class="caption" text-anchor="middle" pointer-events="none" x="0" y="5" font-size="10px" fill="#FFFFFF" font-family="Helvetica Neue, Helvetica, Arial, sans-serif"> Alice</text></g><g class="node" aria-label="graph-node2" transform="translate(-604.8958655057182,42.715798338741514)"><circle class="b-outline" cx="0" cy="0" r="25" fill="#F16667" stroke="#eb2728" stroke-width="2px"/><text class="caption" text-anchor="middle" pointer-events="none" x="0" y="5" font-size="10px" fill="#FFFFFF" font-family="Helvetica Neue, Helvetica, Arial, sans-serif"> Bob</text></g><g class="node" aria-label="graph-node3" transform="translate(-277.2048670987694,281.27549169362334)"><circle class="b-outline" cx="0" cy="0" r="25" fill="#D9C8AE" stroke="#c0a378" stroke-width="2px"/><text class="caption" text-anchor="middle" pointer-events="none" x="0" y="5" font-size="10px" fill="#2A2C34" font-family="Helvetica Neue, Helvetica, Arial, sans-serif"> Mathem…</text></g><g class="node" aria-label="graph-node4" transform="translate(-212.20462932741495,206.01077311212694)"><circle class="b-outline" cx="0" cy="0" r="25" fill="#D9C8AE" stroke="#c0a378" stroke-width="2px"/><text class="caption" text-anchor="middle" pointer-events="none" x="0" y="0" font-size="10px" fill="#2A2C34" font-family="Helvetica Neue, Helvetica, Arial, sans-serif"> Computer</text><text class="caption" text-anchor="middle" pointer-events="none" x="0" y="10" font-size="10px" fill="#2A2C34" font-family="Helvetica Neue, Helvetica, Arial, sans-serif"> Science</text></g><g class="node" aria-label="graph-node5" transform="translate(-64.12533627800931,1.5485548932113318)"><circle class="b-outline" cx="0" cy="0" r="25" fill="#8DCC93" stroke="#5db665" stroke-width="2px"/><text class="caption" text-anchor="middle" pointer-events="none" x="0" y="5" font-size="10px" fill="#2A2C34" font-family="Helvetica Neue, Helvetica, Arial, sans-serif"> Dr. Smith</text></g><g class="node" aria-label="graph-node6" transform="translate(118.96924180050353,-41.405683241279945)"><circle class="b-outline" cx="0" cy="0" r="25" fill="#8DCC93" stroke="#5db665" stroke-width="2px"/><text class="caption" text-anchor="middle" pointer-events="none" x="0" y="0" font-size="10px" fill="#2A2C34" font-family="Helvetica Neue, Helvetica, Arial, sans-serif"> Prof.</text><text class="caption" text-anchor="middle" pointer-events="none" x="0" y="10" font-size="10px" fill="#2A2C34" font-family="Helvetica Neue, Helvetica, Arial, sans-serif"> Johns…</text></g><g class="node" aria-label="graph-node7" transform="translate(-129.6784014270006,-112.6805913713404)"><circle class="b-outline" cx="0" cy="0" r="25" fill="#ECB5C9" stroke="#da7298" stroke-width="2px"/><text class="caption" text-anchor="middle" pointer-events="none" x="0" y="0" font-size="10px" fill="#2A2C34" font-family="Helvetica Neue, Helvetica, Arial, sans-serif"> Computer</text><text class="caption" text-anchor="middle" pointer-events="none" x="0" y="10" font-size="10px" fill="#2A2C34" font-family="Helvetica Neue, Helvetica, Arial, sans-serif"> Science</text></g><g class="node" aria-label="graph-node8" transform="translate(-720.1287219563678,-180.73181936951167)"><circle class="b-outline" cx="0" cy="0" r="25" fill="#ECB5C9" stroke="#da7298" stroke-width="2px"/><text class="caption" text-anchor="middle" pointer-events="none" x="0" y="5" font-size="10px" fill="#2A2C34" font-family="Helvetica Neue, Helvetica, Arial, sans-serif"> Mathem…</text></g><g class="node" aria-label="graph-node9" transform="translate(-439.3510944259156,-173.86106180195156)"><circle class="b-outline" cx="0" cy="0" r="25" fill="#8DCC93" stroke="#5db665" stroke-width="2px"/><text class="caption" text-anchor="middle" pointer-events="none" x="0" y="5" font-size="10px" fill="#2A2C34" font-family="Helvetica Neue, Helvetica, Arial, sans-serif"> Dr. Smith</text></g><g class="node" aria-label="graph-node10" transform="translate(7.3787875361897095,-191.50625855252449)"><circle class="b-outline" cx="0" cy="0" r="25" fill="#8DCC93" stroke="#5db665" stroke-width="2px"/><text class="caption" text-anchor="middle" pointer-events="none" x="0" y="0" font-size="10px" fill="#2A2C34" font-family="Helvetica Neue, Helvetica, Arial, sans-serif"> Prof.</text><text class="caption" text-anchor="middle" pointer-events="none" x="0" y="10" font-size="10px" fill="#2A2C34" font-family="Helvetica Neue, Helvetica, Arial, sans-serif"> Johns…</text></g><g class="node" aria-label="graph-node11" transform="translate(-557.6749559379562,-219.35326403423014)"><circle class="b-outline" cx="0" cy="0" r="25" fill="#8DCC93" stroke="#5db665" stroke-width="2px"/><text class="caption" text-anchor="middle" pointer-events="none" x="0" y="5" font-size="10px" fill="#2A2C34" font-family="Helvetica Neue, Helvetica, Arial, sans-serif"> Dr. White</text></g><g class="node" aria-label="graph-node12" transform="translate(-307.8577467041696,-40.99883014191044)"><circle class="b-outline" cx="0" cy="0" r="25" fill="#D9C8AE" stroke="#c0a378" stroke-width="2px"/><text class="caption" text-anchor="middle" pointer-events="none" x="0" y="5" font-size="10px" fill="#2A2C34" font-family="Helvetica Neue, Helvetica, Arial, sans-serif"> Introduct…</text></g><g class="node" aria-label="graph-node13" transform="translate(-154.09655995290726,-209.13976775181203)"><circle class="b-outline" cx="0" cy="0" r="25" fill="#D9C8AE" stroke="#c0a378" stroke-width="2px"/><text class="caption" text-anchor="middle" pointer-events="none" x="0" y="0" font-size="10px" fill="#2A2C34" font-family="Helvetica Neue, Helvetica, Arial, sans-serif"> Data</text><text class="caption" text-anchor="middle" pointer-events="none" x="0" y="10" font-size="10px" fill="#2A2C34" font-family="Helvetica Neue, Helvetica, Arial, sans-serif"> Struct…</text></g><g class="node" aria-label="graph-node14" transform="translate(-535.7327492140265,-73.42280330357764)"><circle class="b-outline" cx="0" cy="0" r="25" fill="#D9C8AE" stroke="#c0a378" stroke-width="2px"/><text class="caption" text-anchor="middle" pointer-events="none" x="0" y="5" font-size="10px" fill="#2A2C34" font-family="Helvetica Neue, Helvetica, Arial, sans-serif"> Calculus</text></g><g class="node" aria-label="graph-node16" transform="translate(-472.3144367373245,152.39766470822838)"><circle class="b-outline" cx="0" cy="0" r="25" fill="#4C8EDA" stroke="#2870c2" stroke-width="2px"/><text class="caption" text-anchor="middle" pointer-events="none" x="0" y="5" font-size="10px" fill="#FFFFFF" font-family="Helvetica Neue, Helvetica, Arial, sans-serif"> Program…</text></g><g class="node" aria-label="graph-node17" transform="translate(-439.5018825540315,-265.1468736900752)"><circle class="b-outline" cx="0" cy="0" r="25" fill="#4C8EDA" stroke="#2870c2" stroke-width="2px"/><text class="caption" text-anchor="middle" pointer-events="none" x="0" y="-5" font-size="10px" fill="#FFFFFF" font-family="Helvetica Neue, Helvetica, Arial, sans-serif"> Data</text><text class="caption" text-anchor="middle" pointer-events="none" x="0" y="5" font-size="10px" fill="#FFFFFF" font-family="Helvetica Neue, Helvetica, Arial, sans-serif"> Structures</text><text class="caption" text-anchor="middle" pointer-events="none" x="0" y="15" font-size="10px" fill="#FFFFFF" font-family="Helvetica Neue, Helvetica, Arial, sans-serif"> Ass</text></g><g class="node" aria-label="graph-node18" transform="translate(-728.8341471897251,-91.88749955864304)"><circle class="b-outline" cx="0" cy="0" r="25" fill="#4C8EDA" stroke="#2870c2" stroke-width="2px"/><text class="caption" text-anchor="middle" pointer-events="none" x="0" y="0" font-size="10px" fill="#FFFFFF" font-family="Helvetica Neue, Helvetica, Arial, sans-serif"> Calculus</text><text class="caption" text-anchor="middle" pointer-events="none" x="0" y="10" font-size="10px" fill="#FFFFFF" font-family="Helvetica Neue, Helvetica, Arial, sans-serif"> Quiz 1</text></g></g></svg>